<?xml version="1.0" standalone="no"?>
<!DOCTYPE svg PUBLIC "-//W3C//DTD SVG 20010904//EN"
 "http://www.w3.org/TR/2001/REC-SVG-20010904/DTD/svg10.dtd">
<svg version="1.0" xmlns="http://www.w3.org/2000/svg"
 width="600.000000pt" height="600.000000pt" viewBox="0 0 600.000000 600.000000"
 preserveAspectRatio="xMidYMid meet">
<metadata>
Created by potrace 1.11, written by Peter Selinger 2001-2013
</metadata>
<g transform="translate(0.000000,600.000000) scale(0.100000,-0.100000)"
fill="#000000" stroke="none">
<path d="M2914 5040 c-23 -160 -152 -175 -210 -25 -12 33 -21 44 -33 41 -9 -3
-32 -8 -51 -11 l-35 -6 -1 -59 c-1 -67 -21 -106 -61 -121 -14 -5 -34 -7 -45
-3 -31 9 -84 61 -98 94 -7 17 -18 29 -24 26 -6 -3 -28 -10 -49 -17 l-38 -13 5
-56 c9 -95 -37 -154 -108 -136 -15 4 -47 26 -70 51 l-43 43 -45 -26 c-44 -27
-45 -27 -32 -57 18 -40 17 -90 -1 -124 -16 -32 -33 -41 -74 -41 -27 0 -98 40
-113 63 -8 12 -95 -46 -91 -60 1 -4 10 -28 19 -53 41 -108 -22 -171 -130 -130
-13 5 -27 14 -31 19 -11 19 -31 12 -68 -25 l-36 -36 24 -37 c13 -20 27 -52 30
-72 12 -73 -59 -114 -145 -84 -48 17 -53 14 -92 -46 -16 -25 -15 -27 9 -55 50
-58 56 -112 17 -151 -24 -24 -31 -25 -90 -20 l-63 5 -21 -42 c-26 -54 -25 -54
9 -85 57 -53 66 -103 25 -145 -15 -14 -34 -27 -43 -27 -9 -1 -32 -3 -51 -4
-19 -2 -38 -4 -41 -4 -3 -1 -11 -24 -19 -53 -11 -44 -11 -53 1 -57 25 -8 78
-67 84 -94 13 -50 -49 -104 -124 -110 -12 -1 -21 -4 -21 -7 -1 -3 -3 -28 -6
-56 l-5 -50 39 -18 c42 -19 72 -60 72 -98 0 -29 -44 -74 -83 -83 -36 -9 -43
-24 -39 -84 3 -36 8 -51 18 -51 27 0 90 -38 102 -62 16 -30 8 -65 -19 -94 -31
-33 -52 -37 -92 -20 -39 16 -50 10 -77 -42 -19 -38 -51 -71 -96 -99 l-42 -27
0 -563 0 -563 31 -1 c18 0 258 -1 535 -1 l502 -1 -1 -31 c0 -17 -4 -40 -8 -51
-7 -17 0 -26 40 -52 l48 -33 37 25 c85 58 158 12 149 -94 -3 -41 -3 -42 47
-67 l50 -26 33 32 c21 21 46 33 71 37 53 7 84 -25 92 -99 l7 -53 54 -14 c50
-14 54 -13 64 4 16 30 58 65 85 72 42 10 93 -41 107 -109 5 -27 14 -32 77 -43
35 -7 37 -5 57 33 40 78 102 95 151 42 16 -17 31 -44 35 -60 6 -29 8 -30 64
-30 l58 0 12 39 c14 48 63 92 94 87 12 -3 25 -5 29 -5 15 -2 60 -55 70 -81 8
-25 12 -27 51 -23 49 6 70 16 73 34 1 8 4 29 7 48 8 48 43 81 85 81 26 0 43
-9 72 -37 20 -21 39 -44 41 -50 3 -10 16 -9 55 4 l52 16 1 55 c1 120 87 156
171 72 l38 -38 46 22 c51 23 49 17 31 116 -5 28 24 80 50 90 15 6 38 7 53 4
28 -7 84 -42 90 -56 6 -13 17 -9 60 22 l41 30 -14 34 c-8 20 -15 39 -15 44 0
6 197 10 478 10 262 0 489 1 505 1 l27 1 0 561 0 562 -130 194 c-71 107 -130
198 -130 203 0 5 12 13 28 17 37 10 39 10 62 12 17 1 20 8 20 51 0 54 -2 56
-60 63 -150 18 -161 152 -17 206 47 17 52 22 49 48 -7 71 -4 68 -69 70 -37 1
-74 10 -94 21 -73 40 -55 124 39 177 56 32 59 40 33 107 -10 25 -13 27 -38 17
-65 -25 -164 -2 -178 42 -16 51 14 109 82 157 l33 23 -20 39 c-11 21 -23 41
-28 44 -4 2 -32 -4 -61 -14 -94 -31 -161 -2 -161 70 0 39 39 104 80 133 l22
15 -21 24 c-11 12 -26 31 -34 42 -13 18 -15 18 -59 -8 -151 -88 -242 27 -133
170 l24 31 -38 37 -38 37 -27 -24 c-51 -47 -116 -68 -161 -51 -53 21 -52 139
2 205 12 14 8 20 -33 46 l-46 30 -38 -41 c-116 -125 -234 -44 -176 120 l14 41
-46 22 -47 23 -15 -23 c-53 -81 -109 -117 -154 -99 -50 19 -77 94 -58 164 10
35 9 38 -16 47 -69 26 -76 24 -101 -28 -67 -144 -203 -111 -202 49 0 51 -4 54
-67 60 -32 3 -34 1 -53 -52 -21 -63 -68 -109 -105 -105 -54 6 -88 52 -108 146
-5 24 -10 26 -56 25 l-50 -1 -6 -45z m346 -344 c25 -4 59 -10 75 -12 214 -34
404 -121 495 -228 70 -83 83 -190 35 -290 -50 -106 -219 -250 -388 -332 l-58
-29 -27 31 c-15 17 -38 45 -52 62 -14 17 -52 51 -85 77 -79 60 -243 222 -261
256 -11 23 -39 38 -79 44 -24 3 -45 -19 -80 -82 -43 -79 -86 -137 -129 -176
-17 -15 -44 -40 -59 -54 -16 -14 -51 -59 -78 -100 -64 -94 -105 -140 -141
-159 -34 -18 -117 -20 -168 -4 -19 5 -54 10 -77 10 -34 0 -43 -4 -44 -17 -3
-77 -28 -107 -84 -99 -119 15 -244 75 -308 146 -144 161 -59 386 233 614 200
156 545 299 800 331 30 4 78 10 105 14 64 8 316 6 375 -3z m917 -602 c120 -58
117 -228 -6 -280 -46 -19 -85 -18 -130 5 -44 23 -68 55 -79 108 -26 121 102
220 215 167z m-1243 -254 l24 -105 -1 82 c-2 45 0 79 3 77 3 -3 14 -57 26
-120 l20 -114 -35 -10 c-60 -17 -223 -49 -281 -55 -30 -4 -61 -8 -68 -10 -7
-3 -58 -7 -115 -10 -61 -3 -92 -1 -77 4 78 26 147 90 225 211 23 36 69 90 102
120 33 30 75 75 94 98 l34 44 12 -54 c7 -29 23 -100 37 -158z m336 -98 c-20
-7 -40 7 -34 23 6 14 9 14 26 -2 12 -10 15 -19 8 -21z m1241 -61 c116 -59 216
-245 244 -453 l6 -48 -105 63 c-135 79 -191 127 -258 224 -65 93 -124 148
-167 158 -17 4 -29 10 -26 15 5 9 86 48 125 61 43 14 133 5 181 -20z m-2781
-126 c64 -33 101 -120 79 -183 -12 -36 -33 -49 -132 -81 l-67 -23 -34 21 c-79
49 -91 183 -20 242 47 39 124 50 174 24z m2438 -195 c-2 -77 -1 -140 2 -141 3
-1 16 -2 30 -4 57 -6 105 -16 108 -23 1 -4 23 -41 48 -82 43 -72 45 -73 38
-35 -8 50 1 42 47 -43 l36 -67 117 -44 c64 -25 114 -46 111 -49 -2 -2 -91 -31
-197 -63 -122 -38 -175 -57 -143 -54 136 16 139 14 35 -15 -58 -17 -114 -32
-125 -34 -11 -2 -32 -7 -46 -11 -23 -6 -31 0 -59 37 -19 24 -37 47 -41 52 -5
5 -24 -5 -44 -23 -20 -17 -39 -31 -43 -31 -8 0 -59 189 -54 203 4 13 -8 8 -51
-21 -66 -45 -66 -45 -62 -20 2 13 6 59 9 103 6 71 9 82 34 102 15 13 31 23 36
23 5 0 6 30 3 68 l-5 67 14 -39 c8 -22 16 -41 18 -44 3 -2 5 51 5 119 1 67 6
128 11 134 6 7 31 20 57 30 25 10 58 24 72 31 14 8 30 14 34 14 5 0 7 -63 5
-140z m-1013 17 l40 -14 0 -85 c0 -84 0 -85 43 -141 23 -31 42 -59 42 -62 0
-8 -120 -165 -126 -165 -4 0 23 60 51 112 8 14 15 29 15 33 0 7 -171 -211
-192 -245 -11 -18 -15 -17 -59 16 l-48 35 -56 -36 -56 -36 7 73 c3 40 8 76 11
81 2 4 1 7 -2 7 -3 0 -17 -24 -30 -52 -28 -63 -29 -55 -10 77 19 131 19 128
-12 148 -28 18 -28 18 -3 13 24 -5 24 -5 -5 18 -16 13 -41 33 -55 44 l-25 21
61 58 c110 104 279 146 409 100z m-1523 -435 l37 -40 -31 -65 -31 -64 -78 -30
-78 -30 -6 26 c-6 24 -8 25 -20 8 -11 -15 -12 -11 -8 28 3 25 3 45 1 45 -7 0
-68 -99 -68 -109 0 -5 -7 -14 -15 -21 -13 -11 -14 -1 -11 78 3 92 10 111 56
165 36 42 55 63 46 50 -5 -8 -7 -16 -4 -18 2 -3 31 22 63 54 l58 58 26 -48
c14 -26 43 -66 63 -87z m283 63 c61 -30 144 -78 185 -108 69 -49 75 -56 81
-96 3 -24 1 -48 -5 -55 -6 -8 -45 -24 -86 -36 l-74 -23 -58 64 -57 64 14 -47
c8 -27 12 -48 10 -48 -2 0 -25 27 -51 60 l-47 60 -19 -31 c-11 -17 -21 -30
-22 -28 -2 2 -7 35 -11 72 -3 37 -8 76 -10 85 -2 10 -6 44 -10 76 l-8 59 29
-7 c16 -4 79 -32 139 -61z m1015 -1656 c-93 -78 -277 -85 -478 -18 -139 46
-137 47 199 46 l313 0 -34 -28z"/>
<path d="M637 1914 c-3 -3 -144 -57 -312 -119 l-307 -112 64 -74 c34 -41 65
-76 68 -79 3 -3 47 -54 98 -113 89 -105 91 -109 78 -135 -7 -15 -35 -74 -62
-131 -27 -58 -68 -143 -90 -190 -23 -47 -39 -88 -37 -91 4 -4 1193 -8 1193 -3
0 0 -73 54 -162 120 -90 65 -208 152 -264 193 -56 41 -129 94 -162 118 l-59
43 1 289 c1 288 1 290 -20 290 -11 0 -23 -3 -27 -6z"/>
<path d="M5329 1918 c-1 -2 -2 -132 -3 -291 l-1 -287 -290 -212 c-160 -116
-305 -222 -323 -234 -18 -12 -29 -24 -25 -26 7 -4 1147 -3 1180 1 9 1 7 12 -7
39 -27 52 -148 308 -171 361 l-20 44 28 31 c31 34 31 33 93 107 25 29 78 91
118 137 39 46 72 87 72 91 0 4 -78 36 -172 70 -95 34 -182 66 -193 71 -34 15
-268 100 -277 100 -4 0 -9 -1 -9 -2z"/>
<path d="M800 1294 c89 -64 223 -162 235 -171 22 -19 302 -221 328 -238 28
-18 28 -18 -16 76 -24 52 -72 158 -108 237 l-64 142 -219 0 -220 0 64 -46z"/>
<path d="M4730 1113 c-57 -126 -105 -232 -108 -237 -9 -16 43 20 348 244 113
82 216 158 229 167 76 56 87 52 -150 53 l-216 0 -103 -227z"/>
</g>
</svg>
